# xmcd CD database file
# Copyright (C) 1997 Ti Kan
# 
# Track frame offsets:
#     150
#     12470
#     27000
#     40670
#     52887
#     63617
#     78107
#     91832
#     105537
#     118077
#     129487
#     141142
#     153525
#     167812
#     178400
#     190175
#     202462
#     214212
#     225115
#     237862
# 
# Disc length: 3337 seconds
# 
# Revision: 1
# Processed by: cddbd v1.4b41PL1 Copyright (c) Steve Scherf et al.
# Submitted via: DiscPlay 4.0.4
# 
DISCID=0f0d0714
DTITLE=Earl Bostic - Earl Bostic Flamingo
DYEAR=1900
DGENRE=
TTITLE0=Flamingo
TTITLE1=Sleep
TTITLE2=Always
TTITLE3=Moonglow
TTITLE4=Ain't Misbehavin'
TTITLE5=You Go To My Head
TTITLE6=Cherokee
TTITLE7=Steamwhistle Jump
TTITLE8=What! No Pearls
TTITLE9=Deep Purple
TTITLE10=Mambostic
TTITLE11=Sweet Lorraine
TTITLE12=Where Or When
TTITLE13=Harlem Nocturne
TTITLE14=720 In The Books
TTITLE15=Tuxedo Junction
TTITLE16=Night Train
TTITLE17=Special Delivery Stomp
TTITLE18=Song of The Islands
TTITLE19=Liebestraum - Liszt
EXTD=
EXTT0=
EXTT1=
EXTT2=
EXTT3=
EXTT4=
EXTT5=
EXTT6=
EXTT7=
EXTT8=
EXTT9=
EXTT10=
EXTT11=
EXTT12=
EXTT13=
EXTT14=
EXTT15=
EXTT16=
EXTT17=
EXTT18=
EXTT19=
PLAYORDER=
